<?xml version="1.0" encoding="iso-8859-1"?>
<!-- Uploaded to: SVG Repo, www.svgrepo.com, Generator: SVG Repo Mixer Tools -->
<svg version="1.1" id="Layer_1" xmlns="http://www.w3.org/2000/svg" xmlns:xlink="http://www.w3.org/1999/xlink" 
	 viewBox="0 0 512 512" xml:space="preserve">
<polygon style="fill:#797781;" points="426.22,294.869 29.487,294.869 29.487,348.482 469.11,348.482 "/>
<g>
	<polygon style="fill:#58575D;" points="426.22,294.869 297.55,294.869 243.936,348.482 469.11,348.482 	"/>
	<rect x="168.88" y="273.424" style="fill:#58575D;" width="96.503" height="32.168"/>
</g>
<g>
	
		<circle style="fill:none;stroke:#2E2D31;stroke-width:15;stroke-linecap:round;stroke-linejoin:round;stroke-miterlimit:10;" cx="313.634" cy="353.843" r="5.361"/>
	
		<circle style="fill:none;stroke:#2E2D31;stroke-width:15;stroke-linecap:round;stroke-linejoin:round;stroke-miterlimit:10;" cx="410.136" cy="353.843" r="5.361"/>
</g>
<rect x="308.272" y="101.864" style="fill:#CCCCCE;" width="96.503" height="42.89"/>
<path style="fill:#EDEDED;" d="M276.105,134.031H426.22c47.375,0,85.78,38.405,85.78,85.78s-38.405,85.78-85.78,85.78H276.105
	c-47.375,0-85.78-38.405-85.78-85.78S228.729,134.031,276.105,134.031z"/>
<g>
	<rect x="125.99" y="241.257" style="fill:#88888F;" width="53.613" height="64.335"/>
	<circle style="fill:#88888F;" cx="88.461" cy="353.843" r="48.251"/>
</g>
<path style="fill:#EDEDED;" d="M88.461,367.246c-7.391,0-13.403-6.012-13.403-13.403c0-7.391,6.012-13.403,13.403-13.403
	c7.391,0,13.403,6.012,13.403,13.403C101.864,361.234,95.852,367.246,88.461,367.246z"/>
<polygon style="fill:#E07188;" points="93.822,123.309 8.043,209.088 8.042,348.482 29.487,348.482 61.654,305.592 136.713,305.592 
	136.713,123.309 "/>
<polygon style="fill:#D1E5F5;" points="93.822,123.309 61.654,123.309 8.043,176.92 8.043,209.089 93.822,209.089 "/>
<path style="fill:#88888F;" d="M93.822,249.298H61.654c-4.441,0-8.042-3.601-8.042-8.042s3.601-8.042,8.042-8.042h32.168
	c4.441,0,8.042,3.601,8.042,8.042S98.263,249.298,93.822,249.298z"/>
<polygon style="fill:#B4D8F1;" points="8.043,209.089 93.822,209.089 93.822,123.309 8.043,209.088 "/>
<path style="fill:#88888F;" d="M75.058,313.634H8.042c-4.441,0-8.042-3.601-8.042-8.042c0-4.441,3.601-8.042,8.042-8.042h67.016
	c4.441,0,8.042,3.601,8.042,8.042C83.099,310.033,79.499,313.634,75.058,313.634z"/>
<path style="fill:#DBDBDB;" d="M426.22,134.031H276.105c-3.635,0-7.208,0.252-10.724,0.692v170.178
	c3.516,0.439,7.089,0.692,10.724,0.692H426.22c47.375,0,85.78-38.405,85.78-85.78S473.595,134.031,426.22,134.031z"/>
<circle style="fill:#797781;" cx="313.634" cy="353.843" r="48.251"/>
<path style="fill:#DBDBDB;" d="M313.634,367.246c-7.391,0-13.403-6.012-13.403-13.403c0-7.391,6.012-13.403,13.403-13.403
	c7.391,0,13.403,6.012,13.403,13.403C327.037,361.234,321.025,367.246,313.634,367.246z"/>
<circle style="fill:#797781;" cx="410.136" cy="353.843" r="48.251"/>
<path style="fill:#DBDBDB;" d="M410.136,367.246c-7.391,0-13.403-6.012-13.403-13.403c0-7.391,6.012-13.403,13.403-13.403
	c7.391,0,13.403,6.012,13.403,13.403C423.539,361.234,417.527,367.246,410.136,367.246z"/>
<path style="fill:#58575D;" d="M479.832,356.524c-2.058,0-4.116-0.785-5.687-2.356l-40.533-40.534H290.158l-40.534,40.534
	c-3.141,3.141-8.233,3.141-11.372,0c-3.141-3.141-3.141-8.233,0-11.372l42.889-42.89c1.509-1.509,3.553-2.356,5.687-2.356h150.115
	c2.133,0,4.179,0.847,5.687,2.356l42.89,42.89c3.141,3.141,3.141,8.233,0,11.372C483.949,355.739,481.89,356.524,479.832,356.524z"
	/>
<path style="fill:#49484C;" d="M485.52,342.796l-42.89-42.89c-1.509-1.509-3.553-2.356-5.687-2.356H286.827
	c-2.133,0-4.179,0.847-5.687,2.356l-15.758,15.758v22.746l24.775-24.775h143.453l40.534,40.534c1.571,1.57,3.63,2.356,5.687,2.356
	s4.116-0.785,5.687-2.356C488.659,351.028,488.659,345.935,485.52,342.796z"/>
<path style="fill:#88888F;" d="M458.387,410.136H40.209c-4.441,0-8.042-3.601-8.042-8.042c0-4.441,3.601-8.042,8.042-8.042h418.178
	c4.442,0,8.042,3.601,8.042,8.042C466.429,406.536,462.83,410.136,458.387,410.136z"/>
<path style="fill:#797781;" d="M458.387,394.052H265.382v16.084h193.005c4.442,0,8.042-3.601,8.042-8.042
	C466.429,397.653,462.83,394.052,458.387,394.052z"/>
</svg>